<?xml version="1.0" encoding="UTF-8"?>
<!DOCTYPE svg PUBLIC "-//W3C//DTD SVG 1.1//EN" "http://www.w3.org/Graphics/SVG/1.1/DTD/svg11.dtd">
<!-- Creator: CorelDRAW -->
<svg xmlns="http://www.w3.org/2000/svg" xml:space="preserve" width="3717px" height="1312px" version="1.1" style="shape-rendering:geometricPrecision; text-rendering:geometricPrecision; image-rendering:optimizeQuality; fill-rule:evenodd; clip-rule:evenodd"
viewBox="0 0 8047.01 2839.69"
 xmlns:xlink="http://www.w3.org/1999/xlink"
 xmlns:xodm="http://www.corel.com/coreldraw/odm/2003">
 <defs>
  <style type="text/css">
   <![CDATA[
    .str0 {stroke:#5830E0;stroke-width:239.92;stroke-miterlimit:22.9256}
    .str1 {stroke:#5830E0;stroke-width:216.47;stroke-miterlimit:22.9256}
    .fil0 {fill:none}
    .fil1 {fill:#5830E0;fill-rule:nonzero}
   ]]>
  </style>
 </defs>
 <g id="Слой_x0020_1">
  <metadata id="CorelCorpID_0Corel-Layer"/>
  <path class="fil0 str0" d="M471.47 2516.9c-194.14,0 -351.51,-157.37 -351.51,-351.5 0,-194.14 157.37,-351.51 351.51,-351.51 194.13,0 351.5,157.37 351.5,351.51 0,194.13 -157.37,351.5 -351.5,351.5z"/>
  <path class="fil0 str0" d="M1851.29 2516.9c-194.14,0 -351.51,-157.37 -351.51,-351.5 0,-194.14 157.37,-351.51 351.51,-351.51 194.13,0 351.5,157.37 351.5,351.51 0,194.13 -157.37,351.5 -351.5,351.5z"/>
  <polyline class="fil0 str0" points="119.96,2165.4 119.96,1071.55 816.39,1071.55 1066.77,1473.23 1506.7,1473.23 1506.7,119.96 2202.79,119.96 2202.79,2165.4 "/>
  <line class="fil0 str1" x1="822.97" y1="2165.4" x2="1499.78" y2= "2165.4" />
  <path class="fil1" d="M2406.7 2504.17l0 -957.86 244.88 0 0 731.92 458.64 0 0 225.94 -703.52 0zm1032.28 10.82c-33.38,0 -64.94,-4.51 -94.71,-13.52 -29.76,-9.02 -56.15,-22.55 -79.14,-40.59 -23,-18.04 -41.27,-40.59 -54.8,-67.65 -13.53,-27.06 -20.29,-59.08 -20.29,-96.06 0,-54.11 11.5,-96.5 34.5,-127.17 23,-30.67 54.11,-53.21 93.35,-67.65 39.23,-14.43 83.88,-23.67 133.94,-27.73 50.06,-4.06 102.14,-6.09 156.26,-6.09l32.47 0c0,-17.14 -4.06,-32.47 -12.18,-46 -8.11,-13.53 -19.61,-24.35 -34.5,-32.47 -14.88,-8.11 -33.14,-12.17 -54.79,-12.17 -15.33,0 -30.21,2.25 -44.65,6.76 -14.43,4.51 -26.38,10.6 -35.85,18.27 -9.47,7.66 -15.11,16.91 -16.91,27.73l-238.11 0c5.41,-44.2 18.49,-82.3 39.23,-114.32 20.75,-32.02 46.9,-58.18 78.47,-78.47 31.57,-20.29 66.97,-35.4 106.21,-45.32 39.23,-9.92 80.04,-14.89 122.43,-14.89 104.63,0 183.77,29.09 237.44,87.27 53.66,58.17 80.5,143.63 80.5,256.38l0 382.87 -220.53 0 0 -93.35c-23.45,35.18 -49.83,59.98 -79.14,74.41 -29.31,14.43 -55.92,23 -79.82,25.71 -23.9,2.7 -40.37,4.05 -49.38,4.05zm64.94 -182.64c22.54,0 44.42,-5.64 65.61,-16.91 21.2,-11.28 38.79,-25.48 52.77,-42.62 13.98,-17.13 20.97,-34.27 20.97,-51.41l0 -5.41 -133.94 0c-10.83,0 -21.2,1.13 -31.12,3.38 -9.92,2.26 -18.72,5.64 -26.38,10.15 -7.67,4.51 -13.76,10.37 -18.27,17.59 -4.51,7.21 -6.76,16.23 -6.76,27.06 0,12.62 3.38,23.22 10.15,31.79 6.76,8.57 16.01,15.11 27.73,19.62 11.73,4.51 24.8,6.76 39.24,6.76zm489.75 171.82l0 -712.99 220.52 0 13.53 64.94c22.55,-23.45 46.68,-40.81 72.38,-52.08 25.71,-11.28 50.74,-18.72 75.09,-22.33 24.35,-3.6 45.1,-5.41 62.24,-5.41 66.74,0 119.28,15.33 157.61,46 38.33,30.67 65.62,71.25 81.85,121.76 16.24,50.51 24.35,105.98 24.35,166.41l0 393.7 -239.46 0 0 -373.4c0,-14.44 -1.58,-29.54 -4.74,-45.33 -3.15,-15.78 -8.57,-30.44 -16.23,-43.97 -7.67,-13.53 -18.27,-24.57 -31.8,-33.14 -13.53,-8.57 -31.11,-12.86 -52.76,-12.86 -27.96,0 -51.19,6.32 -69.67,18.95 -18.49,12.62 -32.02,29.53 -40.59,50.73 -8.57,21.2 -12.86,44.87 -12.86,71.03l0 367.99 -239.46 0zm1129.69 10.82c-73.06,0 -133.72,-16.91 -181.97,-50.73 -48.26,-33.82 -84.33,-78.69 -108.24,-134.62 -23.9,-55.92 -35.85,-117.25 -35.85,-183.99 0,-73.06 13.53,-137.32 40.59,-192.79 27.06,-55.47 66.29,-98.77 117.7,-129.88 51.41,-31.12 114.1,-46.68 188.06,-46.68 24.35,0 47.58,2.48 69.67,7.44 22.1,4.96 42.62,12.18 61.56,21.65 18.94,9.47 34.73,21.42 47.35,35.85l0 -294.93 239.47 0 0 957.86 -234.05 0 0 -62.23c-17.14,16.23 -36.31,29.76 -57.5,40.58 -21.2,10.83 -43.97,18.95 -68.33,24.36 -24.35,5.41 -50.5,8.11 -78.46,8.11zm52.76 -217.82c36.08,0 64.71,-7.44 85.91,-22.32 21.2,-14.88 36.53,-33.82 46,-56.82 9.47,-23 14.2,-46.68 14.2,-71.03 0,-25.25 -4.73,-49.38 -14.2,-72.38 -9.47,-23 -24.8,-41.94 -46,-56.82 -21.2,-14.88 -49.38,-22.33 -84.56,-22.33 -36.08,0 -64.49,8.12 -85.23,24.36 -20.75,16.23 -35.4,36.3 -43.97,60.2 -8.57,23.9 -12.85,47.58 -12.85,71.03 0,18.04 2.48,35.85 7.44,53.44 4.96,17.59 13.08,33.37 24.35,47.35 11.27,13.98 25.93,25.03 43.97,33.15 18.04,8.12 39.68,12.17 64.94,12.17zm512.76 207l0 -712.99 239.46 0 0 712.99 -239.46 0zm120.41 -761.69c-43.3,0 -78.25,-12.85 -104.86,-38.56 -26.6,-25.7 -39.91,-59.3 -39.91,-100.79 0,-42.39 13.98,-77.12 41.94,-104.17 27.96,-27.06 62.69,-40.59 104.18,-40.59 39.68,0 73.51,12.85 101.47,38.56 27.96,25.7 41.94,60.65 41.94,104.85 0,42.39 -13.31,76.44 -39.91,102.14 -26.61,25.71 -61.56,38.56 -104.85,38.56zm386.93 784.69c-37.88,0 -70.58,-11.72 -98.09,-35.18 -27.51,-23.45 -41.26,-58.17 -41.26,-104.17 0,-46.9 14.2,-83.2 42.62,-108.91 28.41,-25.7 61.1,-38.56 98.08,-38.56 36.98,0 69,12.63 96.06,37.88 27.06,25.26 40.59,61.34 40.59,108.24 0,46.9 -13.53,82.07 -40.59,105.52 -27.06,23.46 -59.53,35.18 -97.41,35.18zm717.05 -12.18c-17.14,0 -37.89,-1.12 -62.24,-3.38 -24.35,-2.25 -49.83,-9.47 -76.44,-21.64 -26.61,-12.18 -52.54,-32.25 -77.79,-60.21l0 74.41 -235.41 0 0 -957.86 239.47 0 0 315.23c29.76,-29.77 63.36,-51.42 100.79,-64.94 37.43,-13.53 76.89,-20.3 118.38,-20.3 68.55,0 125.14,16.01 169.79,48.03 44.65,32.02 78.02,75.76 100.12,131.23 22.09,55.47 33.14,119.29 33.14,191.44 0,71.25 -11.05,134.62 -33.14,190.09 -22.1,55.47 -55.92,98.98 -101.47,130.55 -45.55,31.57 -103.95,47.35 -175.2,47.35zm-66.3 -213.76c37.88,0 66.97,-8.56 87.27,-25.7 20.29,-17.14 34.27,-38.33 41.94,-63.59 7.66,-25.25 11.5,-49.61 11.5,-73.06 0,-23.45 -4.51,-46.22 -13.53,-68.32 -9.02,-22.1 -23.68,-40.14 -43.97,-54.12 -20.3,-13.98 -47.58,-20.97 -81.85,-20.97 -32.47,0 -59.76,6.77 -81.86,20.3 -22.09,13.53 -38.55,31.79 -49.38,54.79 -10.82,23 -16.23,48.48 -16.23,76.44 0,26.16 5.18,51.19 15.56,75.09 10.37,23.9 26.38,43.07 48.02,57.5 21.65,14.43 49.16,21.64 82.53,21.64zm792.81 538.46c-55.02,0 -109.13,-6.99 -162.35,-20.97 -53.21,-13.98 -104.62,-36.75 -154.23,-68.32l73.06 -193.46c24.35,18.03 53.89,32.47 88.61,43.29 34.73,10.82 75.09,16.23 121.09,16.23 66.74,0 117.48,-12.85 152.2,-38.55 34.73,-25.71 52.09,-67.43 52.09,-125.15l0 -5.41c-15.33,17.14 -33.82,30.66 -55.47,40.59 -21.65,9.92 -44.2,16.91 -67.65,20.97 -23.45,4.06 -46.45,6.08 -69,6.08 -67.64,0 -122.43,-14.65 -164.38,-43.97 -41.94,-29.31 -72.6,-69.22 -91.99,-119.73 -19.4,-50.51 -29.09,-107.33 -29.09,-170.47l0 -389.64 238.11 0 0 346.35c0,16.24 1.13,33.6 3.38,52.09 2.26,18.49 7.45,36.08 15.56,52.76 8.12,16.69 20.52,30.22 37.21,40.59 16.68,10.37 39.01,15.56 66.97,15.56 37.88,0 64.71,-9.25 80.5,-27.74 15.78,-18.49 25.25,-40.81 28.41,-66.97 3.15,-26.15 4.73,-51.41 4.73,-75.76l0 -336.88 239.47 0 0 542.52c0,73.96 -5.64,141.83 -16.91,203.62 -11.28,61.78 -31.57,115.22 -60.88,160.32 -29.32,45.1 -70.58,80.05 -123.8,104.85 -53.21,24.8 -121.76,37.2 -205.64,37.2z"/>
 </g>
</svg>
